# Blender v2.79 (sub 0) OBJ File: 'hangglider.blend'
# www.blender.org
o Cube_Cube.002
v 5.446254 3.427511 -3.007425
v 5.446254 3.427511 -2.076187
v 4.790705 3.427511 -2.076187
v 4.790705 3.427511 -3.007425
v 4.790705 -2.009049 -3.007425
v 4.790705 -1.379851 -3.007425
v 4.790705 -2.009049 -2.076187
v 4.790705 -1.379851 -2.076187
v 5.446254 -1.379851 -2.076187
v 5.446254 -2.009049 -2.076187
v 5.446254 -1.379851 -3.007425
v 5.446254 -2.009049 -3.007425
v 14.948369 3.427511 -25.382772
v 14.948369 4.119295 -25.382772
v 0.571554 3.427511 26.494781
v 0.571554 4.119295 26.494781
v -5.446254 3.427511 -3.007425
v -5.446254 3.427511 -2.076187
v -4.790705 3.427511 -2.076187
v -4.790705 3.427511 -3.007425
v -4.790705 -2.009049 -3.007425
v -4.790705 -1.379851 -3.007425
v -4.790705 -2.009049 -2.076187
v -4.790705 -1.379851 -2.076187
v -5.446254 -1.379851 -2.076187
v -5.446254 -2.009049 -2.076187
v 0.000000 -2.009049 -3.007425
v 0.000000 -1.379851 -3.007425
v 0.000000 -1.379851 -2.076187
v -5.446254 -1.379851 -3.007425
v 0.000000 -2.009049 -2.076187
v -5.446254 -2.009049 -3.007425
v -14.948369 3.427511 -25.382772
v -14.948369 4.119295 -25.382772
v -0.571554 3.427511 26.494781
v -0.571554 4.119295 26.494781
v 0.000000 3.427511 -18.551571
v 0.000000 4.119295 -18.551571
v 0.000000 4.119295 26.494781
v 0.000000 3.427511 26.494781
vt 0.500000 0.125000
vt 0.500000 0.156250
vt 0.468750 0.156250
vt 0.468750 0.125000
vt 0.500000 0.062500
vt 0.750000 0.062500
vt 0.750000 0.031250
vt 0.500000 0.031250
vt 0.562500 0.125000
vt 0.562500 0.156250
vt 0.531250 0.156250
vt 0.531250 0.125000
vt 0.750000 0.062500
vt 1.000000 0.062500
vt 1.000000 0.031250
vt 0.500000 0.093750
vt 0.750000 0.093750
vt 0.750000 -0.000000
vt 0.500000 -0.000000
vt 0.500000 0.125000
vt 0.750000 0.125000
vt 0.531250 0.187500
vt 0.562500 0.187500
vt 0.750000 0.093750
vt 1.000000 0.093750
vt 1.000000 -0.000000
vt 1.000000 0.125000
vt 0.500000 0.968750
vt 0.531250 0.968750
vt 0.531250 0.968750
vt 0.500000 0.968750
vt 0.875000 0.125000
vt 0.875000 0.125000
vt 0.500000 0.218750
vt 0.500000 0.218750
vt 0.500000 0.125000
vt 0.468750 0.125000
vt 0.468750 0.156250
vt 0.500000 0.156250
vt 0.250000 0.031250
vt 0.250000 0.062500
vt 0.562500 0.125000
vt 0.531250 0.125000
vt 0.531250 0.156250
vt 0.562500 0.156250
vt 0.250000 0.062500
vt 0.000000 0.031250
vt 0.000000 0.062500
vt 0.250000 0.093750
vt 0.250000 -0.000000
vt 0.250000 0.125000
vt 0.531250 0.187500
vt 0.562500 0.187500
vt 0.250000 0.093750
vt 0.000000 0.093750
vt 0.000000 -0.000000
vt 0.000000 0.125000
vt 0.468750 0.968750
vt 0.468750 0.968750
vt 0.125000 0.125000
vt 0.125000 0.125000
vn 0.0000 0.0000 1.0000
vn 0.0000 0.0000 -1.0000
vn 0.0000 -1.0000 0.0000
vn 0.0000 1.0000 0.0000
vn 1.0000 0.0000 0.0000
vn -1.0000 0.0000 0.0000
vn 0.9637 0.0000 0.2671
vn -0.4156 0.0000 -0.9095
vn -0.9637 0.0000 0.2671
vn 0.4156 0.0000 -0.9095
s off
f 7/1/1 10/2/1 9/3/1 8/4/1
f 31/5/1 7/6/1 8/7/1 29/8/1
f 6/9/2 11/10/2 12/11/2 5/12/2
f 9/13/1 2/14/1 3/15/1 8/7/1
f 31/5/3 27/16/3 5/17/3 7/6/3
f 5/12/3 12/11/3 10/2/3 7/1/3
f 8/7/4 6/18/4 28/19/4 29/8/4
f 5/17/2 27/16/2 28/20/2 6/21/2
f 10/22/5 12/11/5 11/10/5 9/23/5
f 11/24/5 1/25/5 2/14/5 9/13/5
f 8/7/6 3/15/6 4/26/6 6/18/6
f 6/21/2 4/27/2 1/25/2 11/24/2
f 40/28/1 15/29/1 16/30/1 39/31/1
f 15/29/7 13/32/7 14/33/7 16/30/7
f 40/28/3 37/34/3 13/32/3 15/29/3
f 16/30/4 14/33/4 38/35/4 39/31/4
f 13/32/8 37/34/8 38/35/8 14/33/8
f 23/36/1 24/37/1 25/38/1 26/39/1
f 31/5/1 29/8/1 24/40/1 23/41/1
f 22/42/2 21/43/2 32/44/2 30/45/2
f 25/46/1 24/40/1 19/47/1 18/48/1
f 31/5/3 23/41/3 21/49/3 27/16/3
f 21/43/3 23/36/3 26/39/3 32/44/3
f 24/40/4 29/8/4 28/19/4 22/50/4
f 21/49/2 22/51/2 28/20/2 27/16/2
f 26/52/6 25/53/6 30/45/6 32/44/6
f 30/54/6 25/46/6 18/48/6 17/55/6
f 24/40/5 22/50/5 20/56/5 19/47/5
f 22/51/2 30/54/2 17/55/2 20/57/2
f 40/28/1 39/31/1 36/58/1 35/59/1
f 35/59/9 36/58/9 34/60/9 33/61/9
f 40/28/3 35/59/3 33/61/3 37/34/3
f 36/58/4 39/31/4 38/35/4 34/60/4
f 33/61/10 34/60/10 38/35/10 37/34/10
